<?xml version="1.0" encoding="UTF-8"?><svg id="Layer_1" xmlns="http://www.w3.org/2000/svg" viewBox="0 0 1650 494"><path d="M355.844,446.189v-4.63h-.154c-1.852,3.78-6.945,6.095-12.576,6.095-12.655,0-21.45-9.953-21.45-22.914,0-12.654,9.182-22.838,21.45-22.838,5.246,0,10.107,2.084,12.576,6.018h.154v-4.553h12.807v42.821h-12.807ZM355.844,424.74c0-6.018-4.861-10.879-10.879-10.879-5.864,0-10.494,4.861-10.494,11.033,0,5.941,4.707,10.802,10.648,10.802,6.018,0,10.725-4.784,10.725-10.956Z" fill="#272727"/><path d="M457.631,445.495v-4.553h-.154c-1.852,3.936-5.246,5.941-11.033,5.941-9.027,0-16.511-5.4-16.511-17.591v-26.619h12.807v23.996c0,5.632,2.007,8.255,6.867,8.255s7.33-3.24,7.33-8.486v-23.765h12.807v42.822h-12.114Z" fill="#272727"/><path d="M510.312,446.189v-4.63h-.154c-1.852,3.781-6.945,6.095-12.576,6.095-12.655,0-21.45-9.953-21.45-22.914,0-12.655,9.182-22.839,21.45-22.839,5.246,0,10.107,2.084,12.576,6.018h.154v-4.553h12.807v42.822h-12.807ZM510.312,424.74c0-6.018-4.861-10.879-10.879-10.879-5.864,0-10.494,4.861-10.494,11.033,0,5.941,4.707,10.802,10.648,10.802,6.018,0,10.725-4.784,10.725-10.956Z" fill="#272727"/><path d="M558.304,446.191v-23.764c0-5.787-2.005-8.487-6.712-8.487-5.169,0-7.33,2.854-7.33,8.641v23.61h-12.807v-42.822h11.958v4.553h.156c2.7-4.399,6.481-6.018,11.65-6.018,7.715,0,15.894,4.321,15.894,16.975v27.313h-12.809Z" fill="#272727"/><path d="M600.569,447.499c-13.04,0-23.07-9.645-23.07-22.76,0-13.271,10.261-22.762,23.07-22.762,12.884,0,23.07,9.645,23.07,22.606,0,13.425-10.186,22.916-23.07,22.916ZM610.831,424.739c0-5.71-4.32-10.802-10.338-10.802-5.633,0-10.186,4.938-10.186,10.802s4.476,10.801,10.263,10.801c6.018,0,10.261-5.092,10.261-10.801Z" fill="#272727"/><path d="M345.187,461.847c-19.791,0-35.026-17.838-35.026-38.02,0-19.141,15.625-36.199,35.808-36.199,9.125,0,16.39,3.301,22.683,9.007v-16.507c-7.271-3.636-15.373-5.391-23.725-5.391-25.912,0-48.828,21.355-48.828,50.391,0,25.651,22.006,49.609,48.698,49.609,8.802,0,16.814-1.853,23.854-5.461v-16.763c-6.998,6.437-14.845,9.334-23.465,9.334Z" fill="#272727"/><path d="M402.716,401.901c-5.325,0-10.031,1.93-13.425,6.172h-.233v-4.707h-12.035v62.778h12.806v-5.681h.001v-18.132c3.472,3.781,7.871,5.323,12.886,5.323,12.268,0,20.831-10.261,20.831-22.452,0-13.348-8.641-23.301-20.831-23.301ZM400.637,435.696c-6.095,0-10.724-4.861-10.724-10.879,0-6.173,4.784-10.956,10.647-10.956,6.172,0,10.802,4.938,10.802,10.956,0,5.941-4.63,10.879-10.725,10.879Z" fill="#272727"/><polygon points="1108.488 393.971 1125.917 393.971 1140.115 415.856 1154.314 393.971 1171.742 393.971 1171.742 450.502 1155.334 450.502 1155.334 418.037 1140.115 440.165 1139.775 440.165 1124.641 418.198 1124.641 450.502 1108.488 450.502 1108.488 393.971" fill="#272727"/><path d="M1178.03,393.971h28.142c9.097,0,15.389,2.261,19.384,6.138,3.486,3.23,5.272,7.59,5.272,13.162v.163c0,8.642-4.846,14.376-12.243,17.364l14.198,19.705h-19.045l-11.988-17.12h-7.227v17.12h-16.494v-56.531ZM1205.407,421.106c5.611,0,8.842-2.584,8.842-6.702v-.163c0-4.442-3.4-6.702-8.927-6.702h-10.798v13.568h10.883Z" fill="#272727"/><path d="M1249.273,441.941l10.627-9.529c2.892,3.311,5.613,5.25,9.268,5.25,4.166,0,6.802-2.666,6.802-7.915v-35.775h16.408v35.857c0,7.107-1.87,12.113-5.866,15.909-3.91,3.715-9.522,5.734-16.324,5.734-10.372,0-16.749-4.119-20.915-9.53Z" fill="#272727"/><path d="M1316.408,393.971h15.786l25.157,56.534h-17.559l-4.306-10.023h-22.793l-4.221,10.023h-17.221l25.157-56.534ZM1330.759,428.373l-6.584-15.959-6.669,15.959h13.254Z" fill="#272727"/><polygon points="1363.536 429.343 1340.92 393.971 1359.71 393.971 1371.953 414.565 1384.281 393.971 1402.731 393.971 1380.115 429.101 1380.115 450.502 1363.536 450.502 1363.536 429.343" fill="#272727"/><path d="M1515.59,382.697l-4.288,16.282h-1.686c.161-3.629-.852-6.534-3.035-8.719-1.895-1.895-4.479-3.114-7.756-3.661-1.638-.289-4.561-.433-8.767-.433h-4.192l-7.274,25.338c8.22.032,13.777-1.156,16.667-3.564,1.992-1.638,3.71-3.918,5.155-6.841h1.782l-7.419,25.435h-1.686c.289-1.573.434-2.874.434-3.902,0-2.055-.659-3.701-1.975-4.938-1.317-1.236-2.794-1.983-4.433-2.24-1.124-.161-4.319-.241-9.585-.241l-6.166,21.389c-.642,2.216-.963,3.757-.963,4.624,0,1.895,2.409,2.842,7.226,2.842,11.273,0,20.634-4.673,28.085-14.018h1.975l-6.792,17.92h-55.639l.482-1.782c3.629-.128,6.11-.835,7.442-2.119,1.333-1.284,2.674-4.255,4.022-8.912l12.14-42.151c.545-1.831.818-3.276.818-4.335,0-1.509-.61-2.585-1.831-3.228-1.092-.578-3.082-.931-5.972-1.06l.53-1.686h52.701Z" fill="#272727"/><path d="M1568.412,440.078c0-3.616.921-7.251,2.762-10.901,1.84-3.65,4.225-6.955,7.152-9.915,2.926-2.959,6.216-5.36,9.866-7.202,3.65-1.84,7.283-2.762,10.901-2.762,3.552,0,6.363.823,8.435,2.466,2.072,1.645,3.108,4.341,3.108,8.09,0,2.434-.477,4.851-1.431,7.251-.953,2.401-2.219,4.686-3.798,6.857-1.578,2.17-3.388,4.177-5.426,6.018-2.04,1.842-4.144,3.453-6.314,4.835-2.171,1.381-4.325,2.451-6.462,3.206-2.139.755-4.128,1.135-5.969,1.135-3.815,0-6.906-.69-9.273-2.072-2.368-1.381-3.552-3.715-3.552-7.004ZM1598.404,419.458c0-.723-.067-1.48-.197-2.269-.133-.789-.362-1.544-.691-2.269-.33-.723-.774-1.315-1.331-1.776-.56-.459-1.267-.691-2.121-.691-1.053,0-2.121.493-3.207,1.48-1.085.987-2.121,2.286-3.108,3.897-.986,1.612-1.908,3.403-2.762,5.376-.855,1.973-1.612,3.964-2.269,5.969-.658,2.007-1.169,3.913-1.529,5.722-.362,1.81-.543,3.305-.543,4.489,0,.592.065,1.282.197,2.071.132.789.346,1.514.641,2.171.297.658.706,1.218,1.233,1.677.526.461,1.217.691,2.072.691,1.249,0,2.45-.526,3.601-1.578,1.151-1.052,2.22-2.383,3.207-3.995.987-1.611,1.907-3.436,2.762-5.476.854-2.038,1.579-4.028,2.171-5.969.591-1.939,1.05-3.765,1.38-5.476.329-1.709.494-3.058.494-4.045Z" fill="#272727"/><path d="M1557.166,414.88c-1.447-.892-2.994-1.34-4.637-1.34-.922,0-1.86.464-2.812,1.391-.955.927-1.859,2.148-2.713,3.658-.855,1.513-1.661,3.213-2.416,5.102-.757,1.891-1.416,3.779-1.974,5.668-.56,1.891-1.004,3.676-1.331,5.36-.33,1.684-.494,3.109-.494,4.277,0,1.581.197,2.68.592,3.298.395.619,1.15.928,2.269.928,1.512,0,2.926-.464,4.242-1.391,1.316-.928,2.549-2.129,3.7-3.607,1.15-1.477,2.203-3.126,3.157-4.947.953-1.82,1.792-3.641,2.516-5.462.724-1.82,1.348-3.556,1.874-5.205s.953-2.988,1.283-4.019c-.725-1.58-1.81-2.816-3.256-3.71Z" fill="none"/><path d="M1568.412,409.934c-.922.344-1.712.618-2.367.824-.659.206-1.12.309-1.382.309s-.626-.154-1.085-.464c-.462-.309-1.02-.634-1.677-.979-.659-.343-1.398-.67-2.22-.979-.823-.309-1.694-.464-2.615-.464s-2.268.447-4.044,1.34c-1.775.893-3.749,2.131-5.919,3.71-2.171,1.581-4.39,3.436-6.659,5.565-2.269,2.131-4.325,4.467-6.166,7.008-1.842,2.542-3.354,5.205-4.538,7.987-.825,1.942-1.362,3.908-1.612,5.9-.145.179-.297.363-.459.554-.597.703-1.333,1.365-2.207,1.983-.877.62-1.931,1.008-3.164,1.166-.822.105-1.705-.035-2.649-.422-.945-.385-1.482-1.078-1.61-2.076-.128-.998-.075-2.096.162-3.29.234-1.192.573-2.623,1.017-4.292,2.01-8.074,3.967-16.321,5.875-24.742,1.906-8.419,3.883-16.997,5.928-25.732l-10.834,1.386c-2.05,9.155-4.055,18.213-6.011,27.176-1.957,8.963-3.906,17.985-5.847,27.064-.181.919-.355,1.896-.519,2.931-.168,1.038-.193,1.995-.08,2.875.128,1,.477,1.864,1.048,2.596.571.734,1.272,1.314,2.103,1.745.831.431,1.733.718,2.707.863.973.143,1.9.159,2.781.047,1.819-.233,3.599-.894,5.341-1.982,1.74-1.088,3.29-2.269,4.647-3.549.589-.554,1.123-1.094,1.608-1.624.014,2.708.787,4.624,2.317,5.748,1.544,1.133,3.503,1.7,5.87,1.7,1.776,0,3.567-.447,5.377-1.34,1.808-.892,3.552-2.009,5.229-3.35,1.677-1.34,3.222-2.816,4.637-4.431,1.414-1.614,2.615-3.108,3.602-4.484l.296.103c-.658,1.1-1.464,2.715-2.418,4.844-.953,2.131-1.989,4.449-3.108,6.957-1.118,2.507-2.335,5.066-3.65,7.678-1.317,2.61-2.681,4.981-4.095,7.111-1.415,2.129-2.846,3.881-4.291,5.256-1.447,1.373-2.896,2.061-4.341,2.061-1.776,0-2.861-.567-3.256-1.701-.395-1.133-.657-2.491-.789-4.071-.065-.551-.147-1.1-.246-1.649-.098-.551-.311-1.031-.641-1.443-.328-.412-.822-.757-1.48-1.03-.657-.275-1.544-.412-2.664-.412-1.315,0-2.449.567-3.403,1.701-.952,1.133-1.431,2.386-1.431,3.761,0,1.237.165,2.301.493,3.195.33.892.905,1.649,1.727,2.267.823.618,1.94,1.082,3.354,1.391,1.415.309,3.174.464,5.278.464,3.946,0,7.579-.722,10.901-2.164,3.321-1.443,6.315-3.401,8.979-5.874,2.663-2.474,5.013-5.343,7.053-8.605,2.038-3.265,3.781-6.717,5.229-10.358.921-2.334,1.89-5.05,2.91-8.141,1.019-3.092,2.072-6.339,3.158-9.739,1.085-3.401,2.186-6.835,3.304-10.306,1.118-3.468,2.203-6.784,3.256-9.945l-6.708,2.37ZM1559.138,422.61c-.526,1.649-1.151,3.385-1.874,5.205-.724,1.821-1.562,3.643-2.516,5.462-.953,1.821-2.007,3.47-3.157,4.947-1.151,1.478-2.384,2.679-3.7,3.607-1.316.927-2.73,1.391-4.242,1.391-1.12,0-1.874-.309-2.269-.928-.395-.618-.592-1.716-.592-3.298,0-1.168.164-2.592.494-4.277.328-1.683.772-3.469,1.331-5.36.558-1.889,1.217-3.778,1.974-5.668.755-1.889,1.561-3.589,2.416-5.102.854-1.51,1.759-2.731,2.713-3.658.952-.928,1.89-1.391,2.812-1.391,1.643,0,3.189.448,4.637,1.34,1.446.894,2.531,2.131,3.256,3.71-.33,1.031-.757,2.37-1.283,4.019Z" fill="#272727"/><path d="M1622.475,431.594l5.821-16.969v-.002s13.12.001,13.12.001l1.282-4.144h-13.219s5.82-15.981,5.82-15.981l-12.727,2.663-4.525,13.317h-6.717s0,4.142,0,4.142h5.309s-6.202,18.255-6.202,18.255c-.725,1.973-1.349,3.749-1.874,5.327-.526,1.578-.79,2.861-.79,3.848,0,1.25.263,2.336.79,3.256.525.922,1.233,1.662,2.121,2.22.888.558,1.907.97,3.059,1.233,1.15.262,2.351.394,3.601.394,2.367,0,4.588-.478,6.659-1.43,2.072-.953,3.863-2.055,5.377-3.305,1.512-1.249,2.696-2.433,3.552-3.552.854-1.118,1.282-1.84,1.282-2.171,0-.459-.165-.691-.493-.691-.197,0-.576.281-1.135.839-.56.56-1.25,1.184-2.072,1.874-.823.691-1.792,1.317-2.91,1.874-1.118.56-2.367.839-3.749.839-1.183,0-2.17-.262-2.959-.789-.789-.526-1.184-1.184-1.184-1.973,0-1.184.329-2.614.987-4.291.657-1.677,1.249-3.271,1.776-4.785Z" fill="#272727"/><path d="M61.634,422.26c-4.899-2.965-10.144-10.42-10.144-20.493,0-4.21,1.105-10.762,6.418-17.182,6.072-7.381,12.904-8.762,18.7-8.762,4.348,0,10.005.899,15.457,5.451,5.037,4.346,9.453,11.109,9.453,20.633,0,5.035-1.586,10.28-5.175,15.108-4.208,5.591-10.35,9.731-19.873,9.731-3.381,0-9.385-1.105-14.836-4.486ZM94.755,402.459c0-15.112-10.764-24.015-18.423-24.015-1.035,0-5.727-.829-10.902,4.07-4.622,4.416-6.901,11.385-6.901,17.046,0,18.147,12.628,24.563,18.493,24.563,15.18,0,17.733-15.525,17.733-21.665Z" fill="#272727"/><path d="M125.555,413.265c0,2.783.213,7.42.286,8.204.213,2.28,1.283,2.498,3.137,2.498h2.783c.499,0,.499.213.499.499v1.641c0,.426,0,.639-.499.639-.857,0-3.638-.213-9.63-.213-6.419,0-8.629.213-9.413.213-.286,0-.428-.213-.428-.571v-1.709c0-.286.07-.499.499-.499h3.495c1.854,0,2.425-.716,2.496-1.786.072-.997.215-6.632.215-13.264v-4.138c-.927-1.854-12.767-21.967-14.836-24.465-.927-1.07-2.568-1.709-3.708-1.709h-1.784c-.428,0-.499-.217-.499-.503v-1.854c0-.286.07-.426.499-.426.641,0,3.996.213,8.345.213,7.346,0,9.914-.213,10.628-.213.428,0,.499.141.499.358v1.782c0,.358-.07.643-.499.643h-2.355c-2.14,0-2.423.639-2.14,2.353.215,1.138,8.987,16.618,11.128,20.684,2.638-4.138,12.622-18.975,12.908-20.258.286-1.211.643-2.779-2.353-2.779h-1.926c-.428,0-.499-.217-.499-.643v-1.713c0-.286.07-.426.499-.426.714,0,3.638.213,8.418.213,4.207,0,5.777-.213,6.419-.213.499,0,.571.141.571.426v1.713c0,.426-.072.643-.571.643h-1.784c-1.07,0-2.282.426-3.495,1.569-1.426,1.355-14.193,19.828-16.904,23.749v9.343Z" fill="#272727"/><path d="M153.415,407.54c-.684,1.707-4.444,12.099-4.785,13.533-.069.478-.206,1.164-.206,1.503,0,.96.821,1.507,2.324,1.507h3.213c.48,0,.684.135.684.478v1.573c0,.478-.204.613-.547.613-.956,0-3.758-.204-7.792-.204-4.99,0-6.495.204-7.451.204-.343,0-.478-.135-.478-.547v-1.638c0-.343.272-.478.545-.478h2.394c2.051,0,3.006-.96,3.964-3.145.478-1.095,5.467-13.741,7.451-19.345.478-1.368,6.015-16.065,6.63-17.907.206-.686.547-1.573.069-2.324-.206-.274-.478-.617-.478-.89,0-.204.137-.478.615-.617,1.914-.409,4.922-2.459,5.674-3.415.341-.343.547-.617.888-.617.41,0,.547.409.752,1.164,1.299,4.305,6.63,19.615,7.928,23.99,1.573,5.334,6.017,18.046,6.973,20.031,1.162,2.255,2.939,3.076,4.648,3.076h2.257c.409,0,.545.204.545.478v1.707c0,.343-.204.478-.682.478-1.231,0-2.667-.204-8.204-.204-5.674,0-8.065.204-9.638.204-.341,0-.545-.204-.545-.613v-1.573c0-.412.204-.478.615-.478h1.707c1.916,0,2.53-.686,2.052-2.598-.547-2.463-3.349-11.212-4.307-13.945h-16.815ZM169.409,405.077c-.615-2.051-6.152-19.137-6.493-20.162-.206-.478-.343-.96-.547-.96-.274,0-.547.482-.752,1.025-.341.89-6.836,18.389-7.314,20.097h15.105Z" fill="#272727"/><path d="M202.646,394.58c0-4.565-.143-12.126-.215-13.409-.143-1.854-.499-2.566-2.638-2.566h-3.352c-.428,0-.499-.358-.499-.716v-1.569c0-.358.07-.499.499-.499.784,0,3.352.213,9.272.213,6.918,0,9.914-.213,10.555-.213.571,0,.641.213.641.571v1.641c0,.354-.143.571-.712.571h-4.279c-2.212,0-2.498.712-2.498,2.779,0,.929-.213,11.699-.213,16.691v6.133c0,1.215,0,16.618.213,19.542,1.569.145,15.691.286,17.903,0,4.207-.639,8.488-9.198,9.485-11.981.143-.286.286-.426.571-.286l1.14.426c.215.145.215.217.143.643-.213.499-3.067,12.267-3.495,14.193-.927-.072-6.489-.141-12.838-.141-6.348-.072-13.338-.072-17.189-.072-2.781,0-4.85.072-6.348.072-1.426.068-2.282.141-2.781.141s-.571-.141-.571-.499v-1.782c0-.358.072-.499.501-.499h3.423c2.638,0,3.067-1.001,3.067-1.926,0-1.355.215-19.116.215-23.467v-3.994Z" fill="#272727"/><path d="M43.485,426.746c-1.161-1.16-2.242-2.52-3.244-4.079-1.003-1.555-1.966-3.179-2.888-4.871-.923-1.688-1.857-3.364-2.801-5.029-.945-1.663-1.94-3.18-2.986-4.554-.889-1.16-1.856-2.071-2.902-2.732-1.046-.659-2.3-1.042-3.762-1.148-.419-.052-.811-.079-1.177-.079h-1.176c-.418,0-.824.013-1.215.04-.393.027-.798.04-1.215.04v14.731c0,1.849.461,3.314,1.384,4.395.922,1.083,2.044,1.624,3.363,1.624h1.187v1.663H7.698v-1.663h1.108c1.371,0,2.518-.541,3.442-1.624.922-1.081,1.385-2.546,1.385-4.395v-36.985c0-1.003-.186-1.795-.554-2.377-.37-.58-.857-1.029-1.464-1.346s-1.279-.527-2.017-.634c-.739-.105-1.503-.158-2.294-.158v-1.743h21.325c1.997,0,3.931.344,5.799,1.03,1.868.687,3.538,1.663,5.011,2.931,1.472,1.267,2.643,2.772,3.511,4.514.868,1.742,1.303,3.669,1.303,5.781,0,3.01-.909,5.676-2.724,7.999-1.815,2.324-4.091,4.012-6.825,5.068,1.055.74,2.084,1.796,3.086,3.168,1.001,1.374,2.03,2.878,3.086,4.514,1.054,1.638,2.136,3.3,3.244,4.99s2.268,3.221,3.481,4.593c1.213,1.374,2.505,2.495,3.877,3.366s2.875,1.306,4.51,1.306v1.663h-12.501ZM37.131,390.474c0-1.478-.289-2.878-.866-4.197-.578-1.319-1.351-2.467-2.323-3.445-.972-.977-2.128-1.743-3.465-2.297-1.34-.555-2.744-.832-4.214-.832h-6.143v21.225h3.149c1.681,0,3.347-.158,5.001-.475,1.654-.317,3.136-.871,4.449-1.663,1.314-.793,2.376-1.861,3.19-3.208.814-1.346,1.221-3.049,1.221-5.108Z" fill="#272727"/><path d="M60.069,448.865c0-4.96,0-9.252-.068-11.199-.064-2.212-.87-3.35-2.548-3.35h-2.681c-.336,0-.401-.204-.401-.473v-1.675c0-.336.064-.469.401-.469.605,0,2.681.2,8.314.2,3.754,0,9.993-.2,11.199-.2,5.565,0,9.989,1.675,12.537,4.091,2.212,2.144,3.486,5.161,3.486,7.641,0,8.382-3.822,11.535-12.405,13.41v.136c1.611.601,2.548,1.811,3.085,2.548.805.87,5.565,7.709,6.102,8.582.336.669,4.628,6.771,5.902,7.709,1.406,1.006,2.949,1.142,4.828,1.142.469,0,.533.268.533.533v1.478c0,.401-.064.601-.533.601-.537,0-2.28-.2-5.233-.2-1.943,0-4.424.132-5.429.2-.737-.669-2.212-2.949-2.817-3.822-.537-.802-4.159-7.172-4.492-7.709-.268-.469-3.486-5.297-4.291-6.234-1.743-2.079-3.354-3.89-7.244-3.89-.601,0-1.274,0-2.212.2v3.754c0,3.958.068,11.467.136,12.473.132,1.406.669,2.616,1.675,2.616h4.223c.469,0,.537.2.537.533v1.478c0,.469-.068.601-.737.601-.737,0-2.412-.2-8.783-.2-6.102,0-7.645.2-8.382.2-.537,0-.537-.2-.537-.537v-1.543c0-.333,0-.533.336-.533h2.749c1.475,0,2.616-.473,2.616-2.28.132-6.639.132-12.942.132-19.312v-6.503ZM66.103,455.504c1.006.2,1.743.265,3.017.265,12.204,0,14.552-8.378,14.552-11.195,0-3.085-1.41-6.034-3.354-7.645-2.616-2.079-5.565-3.085-11.131-3.085-.805,0-1.675.136-2.28.537-.469.336-.805,1.074-.805,2.147v18.976Z" fill="#272727"/><path d="M117.19,453.693c.537,0,7.709-.268,8.514-.405,1.943-.333,2.48-.87,3.085-2.949.2-.669.469-2.011.537-3.285,0-.336.2-.469.469-.469l1.675.068c.336,0,.469.268.405.533-.204,1.142-.204,6.639-.204,7.645,0,2.348.268,5.565.405,6.976,0,.333-.136.469-.405.533l-1.475.204c-.333.064-.469-.136-.537-.605-.132-.87-.533-2.412-.737-3.149-.401-1.41-1.138-2.416-2.881-2.616-3.153-.336-7.777-.336-8.851-.336v4.159c0,3.618.132,10.125.132,11.463.068,3.49,1.743,4.828,3.822,5.233,1.342.268,3.285.469,4.96.469,1.142,0,4.495-.068,5.902-.2,1.142-.136,4.091-.873,5.834-2.348.805-.669,4.56-5.497,5.497-7.04.2-.336.405-.605.805-.405l1.074.605c.333.2.333.401.132.938l-3.554,9.856c-.2.605-.669,1.006-1.475,1.006-.336,0-1.811-.068-5.834-.132-4.023,0-10.526-.068-20.987-.068-2.48,0-4.355.068-5.698.068-1.406.064-2.28.132-2.885.132-.401,0-.601-.132-.601-.469v-1.811c0-.268.2-.333.669-.333h2.681c3.085,0,3.354-.473,3.354-2.953v-22.462c0-5.565-.132-13.947-.2-14.616-.268-2.144-.938-2.613-3.418-2.613h-2.416c-.336,0-.537-.068-.537-.473v-1.807c0-.204.136-.336.469-.336,1.478,0,3.822.2,8.25.2h2.949c6.639,0,13.274-.068,19.913-.068,1.074,0,2.348-.132,2.684-.132.333,0,.469.132.533.336l3.422,10.794c.068.268.068.469-.2.601l-1.006.537c-.204.136-.473-.064-.537-.2-.136-.268-5.096-6.639-6.707-7.645-1.406-.938-3.285-1.743-5.093-1.807l-11.936-.268v19.645Z" fill="#272727"/><path d="M160.695,453.693c.537,0,7.709-.268,8.514-.405,1.943-.333,2.48-.87,3.085-2.949.2-.669.469-2.011.537-3.285,0-.336.2-.469.469-.469l1.675.068c.336,0,.469.268.405.533-.204,1.142-.204,6.639-.204,7.645,0,2.348.268,5.565.405,6.976,0,.333-.136.469-.405.533l-1.475.204c-.333.064-.469-.136-.537-.605-.132-.87-.537-2.412-.737-3.149-.401-1.41-1.138-2.416-2.881-2.616-3.153-.336-7.777-.336-8.851-.336v4.159c0,3.618.132,10.125.132,11.463.068,3.49,1.743,4.828,3.822,5.233,1.342.268,3.285.469,4.96.469,1.142,0,4.495-.068,5.902-.2,1.142-.136,4.091-.873,5.834-2.348.805-.669,4.56-5.497,5.497-7.04.2-.336.405-.605.805-.405l1.074.605c.333.2.333.401.132.938l-3.554,9.856c-.2.605-.669,1.006-1.475,1.006-.336,0-1.811-.068-5.834-.132-4.023,0-10.526-.068-20.987-.068-2.48,0-4.355.068-5.698.068-1.406.064-2.28.132-2.885.132-.401,0-.601-.132-.601-.469v-1.811c0-.268.2-.333.669-.333h2.684c3.081,0,3.35-.473,3.35-2.953v-22.462c0-5.565-.132-13.947-.2-14.616-.268-2.144-.938-2.613-3.418-2.613h-2.416c-.336,0-.537-.068-.537-.473v-1.807c0-.204.136-.336.469-.336,1.478,0,3.822.2,8.25.2h2.949c6.639,0,13.274-.068,19.913-.068,1.074,0,2.348-.132,2.684-.132.333,0,.469.132.533.336l3.422,10.794c.068.268.068.469-.2.601l-1.006.537c-.204.136-.473-.064-.537-.2-.136-.268-5.096-6.639-6.707-7.645-1.406-.938-3.285-1.743-5.096-1.807l-11.932-.268v19.645Z" fill="#272727"/><path d="M197.72,440.507c0-3.909-1.986-6.093-4.368-6.16l-2.714-.063c-.332,0-.399-.265-.399-.467v-1.721c0-.265.067-.396.399-.396.329,0,.859.067,1.852.067.993.063,2.449.131,4.701.131,2.251,0,3.644-.131,4.436-.131.862,0,1.393.265,1.923.859l13.904,18.011c.728.926,11.918,14.632,13.508,16.753h.265s0-7.882,0-7.882c0-5.892-.067-9.136-.198-12.448-.067-2.58-.399-9.069-.795-10.196-.53-1.654-1.788-2.58-3.644-2.58h-2.117c-.265,0-.399-.134-.399-.467v-1.721c0-.265.134-.396.399-.396.926,0,3.047.198,7.284.198,3.973,0,5.559-.198,6.422-.198.463,0,.53.198.53.463v1.654c0,.265-.134.467-.399.467h-1.788c-1.785,0-2.449,1.124-2.58,3.64-.265,4.436-.265,10.992-.265,15.297v24.761c0,.926-.067,1.591-.332,1.591-.795,0-1.389-.795-1.587-1.06l-8.079-10.196c-4.633-5.761-9.468-11.85-9.864-12.25-.728-.661-12.914-15.957-13.31-16.488h-.396s0,14.699,0,14.699c0,6.16.526,16.951.661,18.276.265,2.584.661,3.842,2.449,3.842h1.986c.463,0,.53.198.53.594v1.456c0,.399-.067.53-.53.53-.661,0-4.633-.198-6.422-.198-1.393,0-5.959.198-6.623.198-.261,0-.329-.131-.329-.463v-1.721c0-.198.067-.396.396-.396h2.251c1.919,0,2.651-.795,2.979-4.04.134-1.258.265-8.808.265-20.594v-11.253Z" fill="#272727"/><path d="M51.745,457.666c-.641.119-1.21.321-1.707.606-.499.285-.914.689-1.246,1.211-.332.523-.497,1.164-.497,1.924v18.022h-1.284c-1.046-.759-2.257-1.139-3.635-1.139-.666,0-1.307.095-1.925.284-.619.189-1.26.333-1.925.428-1.142.237-2.281.392-3.422.463s-2.281.107-3.422.107c-3.375,0-6.583-.594-9.626-1.782-3.041-1.186-5.738-2.837-8.091-4.951-2.354-2.113-4.218-4.629-5.596-7.551-1.379-2.92-2.067-6.114-2.067-9.581s.687-6.66,2.064-9.581c1.375-2.92,3.226-5.45,5.551-7.587,2.324-2.137,5.018-3.811,8.077-5.022,3.061-1.211,6.275-1.816,9.644-1.816,2.04,0,4.057.214,6.049.641.758.238,1.612.535,2.561.891s1.756.534,2.42.534c.473,0,.913-.154,1.316-.463.403-.309.677-.677.819-1.104l1.494.213v11.541h-1.636c-.997-2.707-2.67-4.761-5.018-6.162-2.348-1.4-4.947-2.101-7.793-2.101-2.8,0-5.373.534-7.722,1.602-2.348,1.069-4.353,2.506-6.013,4.31-1.662,1.806-2.954,3.918-3.878,6.34-.926,2.422-1.388,5.011-1.388,7.764,0,2.707.462,5.296,1.388,7.765.925,2.47,2.216,4.655,3.878,6.554,1.66,1.899,3.665,3.407,6.013,4.523,2.349,1.116,4.922,1.674,7.722,1.674,1.518,0,3.155-.166,4.91-.499,1.756-.331,3.321-.854,4.697-1.567v-12.752c0-.759-.154-1.4-.462-1.924-.31-.522-.724-.926-1.245-1.211-.523-.285-1.103-.487-1.744-.606-.641-.118-1.271-.178-1.887-.178v-1.567h16.511v1.567c-.616,0-1.245.06-1.886.178Z" fill="#272727"/><path d="M727.333,418.372l.073,2.359c0,13.711-2.653,30.74-20.041,30.74-16.357,0-21.662-14.375-21.662-28.455,0-13.785,5.231-29.044,21.515-29.044,8.989,0,15.694,5.676,18.936,13.711l-14.515,5.382c-.147-2.212-1.621-5.676-4.274-5.676-6.926,0-6.337,12.753-6.337,16.955.221,3.981-.074,13.712,5.747,13.712,3.979,0,5.232-4.718,5.158-7.961h-5.526v-11.722h20.926Z" fill="#272727"/><path d="M750.954,393.971c15.252,0,21.22,15.185,21.22,28.749s-5.968,28.749-21.22,28.749-21.22-15.186-21.22-28.749,5.968-28.749,21.22-28.749ZM750.954,437.464c5.673,0,5.894-11.278,5.894-14.743s-.221-14.744-5.894-14.744-5.894,11.279-5.894,14.744.221,14.743,5.894,14.743Z" fill="#272727"/><path d="M795.722,393.971c15.252,0,21.22,15.186,21.22,28.75s-5.968,28.75-21.22,28.75-21.22-15.186-21.22-28.75,5.968-28.75,21.22-28.75ZM795.722,437.464c5.673,0,5.895-11.278,5.895-14.743s-.221-14.744-5.895-14.744-5.895,11.279-5.895,14.744.221,14.743,5.895,14.743Z" fill="#272727"/><path d="M819.269,393.972h12.501c17.684,0,27.211,11.134,27.211,28.521,0,26.538-16.693,28.979-26.144,28.979h-13.568v-57.5ZM834.819,437.592c7.089-.077,8.308-8.923,8.308-14.337,0-6.253-1.22-14.947-8.308-14.947v29.284Z" fill="#272727"/><path d="M861.308,393.972h12.5c17.684,0,27.211,11.134,27.211,28.521,0,26.538-16.692,28.979-26.144,28.979h-13.568v-57.5ZM876.857,437.592c7.089-.077,8.308-8.923,8.308-14.337,0-6.253-1.22-14.947-8.308-14.947v29.284Z" fill="#272727"/><path d="M903.346,393.972h28.889v13.574h-13.339v8.007h11.967v13.574h-11.967v8.77h13.339v13.574h-28.889v-57.5Z" fill="#272727"/><path d="M963.451,451.471l-1.144-7.397h-10.442l-1.296,7.397h-16.007l13.796-57.5h18.979l12.196,57.5h-16.082ZM960.478,431.872l-1.677-13.345c-.457-3.583-.762-7.244-1.143-10.829h-.153c-.457,3.584-.838,7.245-1.448,10.829l-2.135,13.345h6.556Z" fill="#272727"/><path d="M981.86,451.471v-57.5h15.549v43.925h11.662v13.574h-27.211Z" fill="#272727"/><path d="M1011.401,434.243c2.063,3.097,5.674,3.738,9.505,3.738,2.064,0,4.422-1.253,4.422-3.686,0-1.327-.442-2.285-1.179-3.096-.664-.811-1.548-1.474-2.506-2.138-2.947-2.285-5.526-4.422-7.442-7.076-1.842-2.581-3.021-5.676-3.021-9.73,0-6.487,4.126-18.282,16.946-18.282,3.61,0,7.515,1.105,10.684,2.801v16.881c-1.768-2.801-5.379-5.971-8.842-5.971-1.768,0-3.905,1.253-3.905,3.391,0,1.18.663,2.212,1.474,3.096.811.885,1.916,1.622,2.726,2.286,3.169,2.211,5.674,4.275,7.368,6.782,1.768,2.506,2.726,5.455,2.726,9.657,0,10.32-7.22,18.577-17.684,18.577h-11.273v-17.229Z" fill="#272727"/><path d="M415.323,285.088h7.196l16.044,41.286h-7.14l-3.773-9.791h-17.458l-3.777,9.791h-7.136l16.044-41.286ZM412.73,310.096h12.383l-6.191-16.102-6.191,16.102Z" fill="#272727"/><path d="M455.855,285.088h14.035c8.201,0,13.685,5.661,13.685,13.211s-5.484,13.213-13.685,13.213h-6.958v14.863h-7.077v-41.286ZM476.379,298.299c0-3.892-2.538-6.487-7.371-6.487h-6.076v12.976h6.076c4.833,0,7.371-2.595,7.371-6.489Z" fill="#272727"/><path d="M500.866,285.088h14.035c8.201,0,13.685,5.661,13.685,13.211s-5.484,13.213-13.685,13.213h-6.958v14.863h-7.077v-41.286ZM521.39,298.299c0-3.892-2.538-6.487-7.371-6.487h-6.076v12.976h6.076c4.833,0,7.371-2.595,7.371-6.489Z" fill="#272727"/><path d="M545.877,285.088h7.077v34.562h17.577v6.723h-24.654v-41.286Z" fill="#272727"/><path d="M587.822,285.088h7.077v41.286h-7.077v-41.286Z" fill="#272727"/><path d="M628.234,285.088h7.196l16.044,41.286h-7.14l-3.773-9.791h-17.458l-3.777,9.791h-7.136l16.044-41.286ZM625.641,310.096h12.383l-6.191-16.102-6.191,16.102Z" fill="#272727"/><path d="M675.135,285.088l20.643,28.429v-28.429h7.077v41.286h-6.366l-20.647-28.369v28.369h-7.077v-41.286h6.37Z" fill="#272727"/><path d="M752.231,314.697l4.722,4.66s-5.429,7.017-15.865,7.017c-11.918,0-20.941-9.142-20.941-21.35s9.023-21.352,20.941-21.352c9.908,0,15.274,6.489,15.274,6.489l-4.778,4.658s-3.717-4.541-10.496-4.541c-8.141,0-13.745,6.783-13.745,14.746s5.604,14.746,13.745,14.746c7.252,0,11.144-5.073,11.144-5.073Z" fill="#272727"/><path d="M781.321,301.839h16.513v6.723h-16.513v11.088h18.284v6.723h-25.361v-41.286h25.007v6.723h-17.931v10.028Z" fill="#272727"/><path d="M884.277,314.697l4.718,4.66s-5.425,7.017-15.865,7.017c-11.914,0-20.937-9.142-20.937-21.35s9.023-21.352,20.937-21.352c9.908,0,15.278,6.489,15.278,6.489l-4.778,4.658s-3.717-4.541-10.5-4.541c-8.141,0-13.741,6.783-13.741,14.746s5.6,14.746,13.741,14.746c7.256,0,11.148-5.073,11.148-5.073Z" fill="#272727"/><path d="M941.477,305.024c0,12.208-8.848,21.35-20.877,21.35s-20.881-9.142-20.881-21.35,8.848-21.352,20.881-21.352,20.877,9.142,20.877,21.352ZM934.28,305.024c0-7.963-5.365-14.626-13.681-14.626s-13.685,6.664-13.685,14.626,5.369,14.626,13.685,14.626,13.681-6.664,13.681-14.626Z" fill="#272727"/><path d="M962.44,285.088l13.447,20.76,13.451-20.76h6.545v41.286h-7.077v-27.72l-12.919,19.64-12.915-19.64v27.72h-7.077v-41.286h6.545Z" fill="#272727"/><path d="M1013.174,285.088h14.035c8.201,0,13.685,5.661,13.685,13.211s-5.484,13.213-13.685,13.213h-6.958v14.863h-7.077v-41.286ZM1033.698,298.299c0-3.892-2.538-6.487-7.371-6.487h-6.076v12.976h6.076c4.833,0,7.371-2.595,7.371-6.489Z" fill="#272727"/><path d="M1064.771,285.088h7.196l16.044,41.286h-7.14l-3.773-9.791h-17.458l-3.777,9.791h-7.136l16.044-41.286ZM1062.178,310.096h12.383l-6.191-16.102-6.191,16.102Z" fill="#272727"/><path d="M1109.212,285.088l20.643,28.429v-28.429h7.077v41.286h-6.37l-20.643-28.369v28.369h-7.077v-41.286h6.37Z" fill="#272727"/><path d="M1154.223,285.088h7.077v41.286h-7.077v-41.286Z" fill="#272727"/><path d="M1185.381,301.839h16.513v6.723h-16.513v11.088h18.284v6.723h-25.361v-41.286h25.007v6.723h-17.931v10.028Z" fill="#272727"/><path d="M1233.241,308.446c-6.072-2.125-12.915-5.427-12.915-13.093,0-5.84,5.191-11.68,13.506-11.68,8.61,0,13.447,6.547,13.447,6.547l-4.897,4.837s-3.419-4.658-8.55-4.658c-3.538,0-6.31,2.182-6.31,4.954,0,3.596,3.245,4.718,8.904,6.841,6.31,2.359,11.561,5.191,11.561,12.68s-6.604,11.501-14.392,11.501c-10.321,0-15.099-8.433-15.099-8.433l5.31-4.484s3.538,6.193,9.789,6.193c3.542,0,7.196-1.416,7.196-4.778,0-3.479-2.653-4.718-7.549-6.428Z" fill="#272727"/><rect x="268" y="251.308" width="1114" height="6.563" fill="#719368"/><path d="M349.887,224.107c-2.627-2.623-5.075-5.698-7.341-9.222-2.269-3.516-4.45-7.189-6.537-11.013-2.089-3.817-4.203-7.607-6.339-11.37-2.138-3.76-4.391-7.19-6.757-10.296-2.011-2.623-4.201-4.683-6.567-6.177-2.366-1.49-5.204-2.355-8.513-2.596-.948-.118-1.836-.179-2.663-.179h-2.661c-.947,0-1.865.03-2.75.089-.89.061-1.806.089-2.75.089v33.307c0,4.182,1.044,7.493,3.132,9.937,2.087,2.448,4.626,3.672,7.611,3.672h2.686v3.76h-41.542v-3.76h2.507c3.102,0,5.698-1.224,7.789-3.672,2.087-2.444,3.134-5.755,3.134-9.937v-83.623c0-2.268-.42-4.058-1.254-5.373-.836-1.312-1.941-2.326-3.313-3.043s-2.895-1.192-4.566-1.433c-1.673-.238-3.402-.357-5.193-.357v-3.94h48.261c4.52,0,8.895.777,13.125,2.328,4.227,1.553,8.008,3.76,11.342,6.626,3.332,2.864,5.982,6.267,7.947,10.207,1.963,3.938,2.948,8.297,2.948,13.071,0,6.805-2.057,12.834-6.164,18.085-4.107,5.254-9.258,9.072-15.447,11.46,2.387,1.673,4.716,4.06,6.985,7.162,2.266,3.106,4.594,6.508,6.983,10.207,2.385,3.703,4.834,7.462,7.341,11.283,2.507,3.82,5.132,7.284,7.879,10.386,2.745,3.106,5.67,5.641,8.774,7.611,3.104,1.969,6.506,2.954,10.207,2.954v3.76h-28.292ZM335.506,142.096c0-3.341-.654-6.506-1.96-9.49-1.308-2.982-3.058-5.579-5.257-7.789-2.199-2.209-4.816-3.94-7.842-5.193-3.032-1.254-6.21-1.882-9.536-1.882h-13.902v47.99h7.128c3.803,0,7.574-.357,11.319-1.074,3.743-.717,7.097-1.969,10.068-3.76,2.973-1.792,5.377-4.208,7.219-7.253,1.842-3.043,2.764-6.894,2.764-11.549Z" fill="#272727"/><path d="M391.328,213.966c-11.077-6.706-22.935-23.557-22.935-46.336,0-9.517,2.497-24.339,14.51-38.848,13.73-16.693,29.175-19.814,42.281-19.814,9.829,0,22.621,2.029,34.947,12.326,11.389,9.829,21.373,25.118,21.373,46.648,0,11.389-3.589,23.247-11.7,34.167-9.517,12.64-23.403,21.997-44.932,21.997-7.646,0-21.218-2.495-33.544-10.141ZM466.215,169.19c0-34.166-24.339-54.291-41.655-54.291-2.341,0-12.95-1.873-24.65,9.203-10.453,9.985-15.601,25.744-15.601,38.536,0,41.031,28.549,55.543,41.811,55.543,34.323,0,40.096-35.105,40.096-48.991Z" fill="#272727"/><path d="M533.345,193.629c0,6.291.484,16.772.645,18.546.484,5.162,2.902,5.646,7.095,5.646h6.289c1.128,0,1.128.484,1.128,1.128v3.708c0,.967,0,1.451-1.128,1.451-1.934,0-8.223-.484-21.77-.484-14.514,0-19.513.484-21.286.484-.645,0-.967-.484-.967-1.29v-3.869c0-.645.161-1.128,1.128-1.128h7.901c4.193,0,5.485-1.612,5.646-4.034.161-2.257.484-14.995.484-29.995v-9.353c-2.097-4.191-28.866-49.667-33.543-55.311-2.096-2.42-5.805-3.871-8.384-3.871h-4.032c-.967,0-1.128-.484-1.128-1.128v-4.193c0-.645.161-.967,1.128-.967,1.451,0,9.029.484,18.866.484,16.611,0,22.416-.484,24.028-.484.967,0,1.128.322,1.128.806v4.032c0,.806-.161,1.451-1.128,1.451h-5.322c-4.838,0-5.483,1.451-4.838,5.322.484,2.581,20.319,37.573,25.157,46.765,5.966-9.353,28.544-42.894,29.189-45.798.645-2.74,1.451-6.289-5.322-6.289h-4.354c-.967,0-1.128-.484-1.128-1.451v-3.871c0-.645.161-.967,1.128-.967,1.612,0,8.223.484,19.027.484,9.515,0,13.063-.484,14.514-.484,1.128,0,1.29.322,1.29.967v3.871c0,.967-.161,1.451-1.29,1.451h-4.032c-2.418,0-5.16.967-7.901,3.548-3.226,3.063-32.09,44.829-38.218,53.699v21.125Z" fill="#272727"/><path d="M596.609,180.679c-1.545,3.864-10.046,27.358-10.818,30.602-.154,1.081-.463,2.626-.463,3.399,0,2.166,1.854,3.402,5.255,3.402h7.263c1.081,0,1.545.309,1.545,1.081v3.553c0,1.081-.463,1.39-1.236,1.39-2.163,0-8.501-.463-17.618-.463-11.283,0-14.682.463-16.847.463-.772,0-1.081-.309-1.081-1.236v-3.708c0-.772.618-1.081,1.236-1.081h5.409c4.637,0,6.801-2.166,8.964-7.11,1.081-2.472,12.365-31.066,16.847-43.738,1.081-3.092,13.599-36.32,14.991-40.493.463-1.545,1.236-3.553.154-5.255-.465-.618-1.083-1.39-1.083-2.008,0-.463.309-1.081,1.392-1.39,4.328-.929,11.127-5.564,12.827-7.728.772-.772,1.238-1.39,2.01-1.39.927,0,1.236.927,1.699,2.626,2.937,9.737,14.991,44.356,17.928,54.247,3.553,12.056,13.599,40.804,15.764,45.284,2.626,5.102,6.645,6.956,10.509,6.956h5.1c.927,0,1.236.463,1.236,1.081v3.862c0,.772-.463,1.081-1.545,1.081-2.783,0-6.027-.463-18.546-.463-12.827,0-18.237.463-21.791.463-.772,0-1.236-.463-1.236-1.39v-3.553c0-.927.463-1.081,1.39-1.081h3.864c4.326,0,5.718-1.545,4.637-5.874-1.238-5.562-7.574-25.346-9.737-31.529h-38.02ZM632.773,175.115c-1.39-4.637-13.91-43.274-14.682-45.592-.463-1.081-.772-2.163-1.236-2.163-.618,0-1.236,1.081-1.699,2.317-.774,2.008-15.456,41.573-16.538,45.437h34.156Z" fill="#272727"/><path d="M708.114,151.379c0-10.321-.322-27.414-.484-30.317-.322-4.193-1.128-5.805-5.966-5.805h-7.578c-.969,0-1.13-.806-1.13-1.612v-3.548c0-.806.161-1.128,1.13-1.128,1.773,0,7.578.484,20.964.484,15.642,0,22.414-.484,23.865-.484,1.291,0,1.453.484,1.453,1.29v3.709c0,.806-.322,1.29-1.614,1.29h-9.676c-4.999,0-5.644,1.612-5.644,6.289,0,2.097-.484,26.446-.484,37.736v13.867c0,2.742,0,37.575.484,44.188,3.548.322,35.477.645,40.476,0,9.515-1.451,19.19-20.802,21.447-27.093.322-.645.645-.967,1.291-.645l2.579.967c.484.322.484.484.322,1.451-.484,1.128-6.934,27.738-7.901,32.09-2.097-.161-14.675-.322-29.027-.322-14.353-.161-30.156-.161-38.864-.161-6.289,0-10.965.161-14.351.161-3.226.161-5.16.322-6.291.322s-1.29-.322-1.29-1.128v-4.03c0-.806.161-1.128,1.128-1.128h7.741c5.966,0,6.934-2.261,6.934-4.356,0-3.063.484-43.217.484-53.054v-9.031Z" fill="#272727"/><path d="M934.513,171.42c-1.542.286-2.914.771-4.11,1.457-1.2.686-2.201,1.657-3.001,2.912-.8,1.259-1.197,2.801-1.197,4.627v43.346h-3.092c-2.517-1.826-5.434-2.739-8.751-2.739-1.604,0-3.146.229-4.634.684-1.491.455-3.034.8-4.634,1.029-2.75.571-5.492.942-8.239,1.113s-5.492.258-8.239.258c-8.126,0-15.848-1.429-23.174-4.285-7.322-2.852-13.815-6.824-19.478-11.909-5.667-5.081-10.155-11.134-13.473-18.161-3.321-7.024-4.976-14.704-4.976-23.044s1.655-16.019,4.969-23.044c3.31-7.024,7.766-13.107,13.364-18.247,5.594-5.14,12.08-9.166,19.445-12.08,7.369-2.912,15.106-4.368,23.217-4.368,4.91,0,9.766.515,14.564,1.542,1.826.573,3.881,1.286,6.165,2.142s4.227,1.284,5.827,1.284c1.138,0,2.197-.369,3.168-1.113.971-.742,1.63-1.628,1.971-2.655l3.597.513v27.757h-3.939c-2.401-6.511-6.427-11.45-12.08-14.82-5.652-3.368-11.909-5.054-18.761-5.054-6.74,0-12.934,1.284-18.591,3.854-5.652,2.572-10.479,6.027-14.477,10.366-4.001,4.343-7.111,9.423-9.337,15.25-2.23,5.825-3.343,12.052-3.343,18.674,0,6.511,1.113,12.738,3.343,18.676,2.226,5.94,5.336,11.196,9.337,15.764,3.997,4.569,8.824,8.195,14.477,10.879,5.656,2.684,11.851,4.027,18.591,4.027,3.656,0,7.595-.4,11.821-1.2,4.227-.797,7.995-2.055,11.309-3.768v-30.67c0-1.826-.371-3.368-1.113-4.627-.746-1.255-1.742-2.226-2.997-2.912-1.259-.686-2.655-1.171-4.198-1.457-1.542-.284-3.059-.429-4.543-.429v-3.768h39.749v3.768c-1.484,0-2.997.145-4.539.429Z" fill="#272727"/><path d="M954.617,150.251c0-11.934,0-22.255-.161-26.93-.161-5.322-2.096-8.064-6.126-8.064h-6.452c-.806,0-.967-.484-.967-1.128v-4.032c0-.806.161-1.128.967-1.128,1.451,0,6.452.484,19.996.484,9.031,0,24.026-.484,26.932-.484,13.383,0,24.026,4.032,30.156,9.837,5.32,5.16,8.382,12.416,8.382,18.383,0,20.158-9.188,27.738-29.83,32.251v.324c3.869,1.451,6.126,4.352,7.415,6.128,1.934,2.096,13.387,18.544,14.677,20.643.806,1.612,11.127,16.285,14.189,18.542,3.385,2.422,7.097,2.744,11.61,2.744,1.128,0,1.29.645,1.29,1.29v3.546c0,.967-.161,1.451-1.29,1.451-1.29,0-5.481-.484-12.577-.484-4.675,0-10.643.322-13.061.484-1.773-1.612-5.323-7.093-6.774-9.192-1.29-1.934-9.998-17.252-10.804-18.542-.645-1.128-8.386-12.742-10.321-14.999-4.191-4.999-8.064-9.353-17.417-9.353-1.451,0-3.063,0-5.32.484v9.031c0,9.515.161,27.577.322,29.995.322,3.385,1.612,6.291,4.03,6.291h10.159c1.128,0,1.29.484,1.29,1.29v3.546c0,1.128-.161,1.451-1.773,1.451-1.773,0-5.803-.484-21.125-.484-14.673,0-18.384.484-20.158.484-1.29,0-1.29-.484-1.29-1.29v-3.708c0-.806,0-1.29.806-1.29h6.613c3.546,0,6.287-1.128,6.287-5.485.322-15.963.322-31.123.322-46.443v-15.642ZM969.132,166.216c2.418.484,4.191.645,7.258.645,29.346,0,34.992-20.158,34.992-26.93,0-7.419-3.385-14.514-8.064-18.384-6.287-4.999-13.383-7.417-26.767-7.417-1.938,0-4.034.322-5.485,1.29-1.128.806-1.934,2.581-1.934,5.16v45.637Z" fill="#272727"/><path d="M1092.44,161.861c1.293,0,18.546-.645,20.48-.967,4.679-.806,5.968-2.097,7.419-7.097.484-1.612,1.128-4.836,1.29-7.901,0-.806.484-1.128,1.128-1.128l4.034.161c.806,0,1.128.645.967,1.29-.484,2.742-.484,15.965-.484,18.384,0,5.644.645,13.383.967,16.771,0,.806-.322,1.128-.967,1.29l-3.546.484c-.81.161-1.132-.322-1.293-1.451-.322-2.097-1.29-5.805-1.773-7.58-.967-3.385-2.74-5.805-6.932-6.289-7.58-.806-18.707-.806-21.29-.806v9.998c0,8.709.326,24.351.326,27.575.161,8.386,4.191,11.614,9.188,12.581,3.228.645,7.903,1.128,11.936,1.128,2.74,0,10.804-.161,14.189-.484,2.74-.322,9.837-2.099,14.028-5.646,1.934-1.612,10.965-13.222,13.226-16.93.484-.81.967-1.455,1.934-.971l2.579,1.455c.806.484.806.967.322,2.257l-8.547,23.704c-.484,1.451-1.612,2.418-3.546,2.418-.806,0-4.356-.161-14.028-.322-9.676,0-25.32-.161-50.475-.161-5.968,0-10.482.161-13.71.161-3.385.161-5.481.322-6.932.322-.967,0-1.455-.322-1.455-1.128v-4.352c0-.645.487-.806,1.616-.806h6.448c7.419,0,8.064-1.128,8.064-7.097v-54.023c0-13.385-.322-33.541-.484-35.155-.645-5.16-2.257-6.289-8.225-6.289h-5.803c-.806,0-1.29-.161-1.29-1.128v-4.354c0-.484.322-.806,1.128-.806,3.546,0,9.192.484,19.835.484h7.093c15.966,0,31.929-.161,47.895-.161,2.579,0,5.642-.322,6.448-.322s1.132.322,1.293.806l8.221,25.963c.161.645.161,1.128-.484,1.451l-2.418,1.29c-.484.324-1.128-.161-1.29-.484-.322-.645-12.255-15.965-16.128-18.383-3.385-2.259-7.899-4.193-12.255-4.354l-28.705-.645v47.249Z" fill="#272727"/><path d="M1196.111,161.861c1.293,0,18.546-.645,20.48-.967,4.679-.806,5.968-2.097,7.419-7.097.484-1.612,1.128-4.836,1.29-7.901,0-.806.484-1.128,1.128-1.128l4.034.161c.806,0,1.128.645.967,1.29-.484,2.742-.484,15.965-.484,18.384,0,5.644.645,13.383.967,16.771,0,.806-.322,1.128-.967,1.29l-3.546.484c-.81.161-1.132-.322-1.293-1.451-.322-2.097-1.29-5.805-1.773-7.58-.967-3.385-2.74-5.805-6.932-6.289-7.58-.806-18.707-.806-21.29-.806v9.998c0,8.709.326,24.351.326,27.575.161,8.386,4.191,11.614,9.188,12.581,3.228.645,7.903,1.128,11.936,1.128,2.74,0,10.804-.161,14.189-.484,2.74-.322,9.837-2.099,14.028-5.646,1.934-1.612,10.965-13.222,13.226-16.93.484-.81.967-1.455,1.934-.971l2.579,1.455c.806.484.806.967.322,2.257l-8.547,23.704c-.484,1.451-1.612,2.418-3.546,2.418-.806,0-4.356-.161-14.028-.322-9.676,0-25.32-.161-50.475-.161-5.968,0-10.482.161-13.71.161-3.385.161-5.481.322-6.932.322-.967,0-1.455-.322-1.455-1.128v-4.352c0-.645.487-.806,1.616-.806h6.448c7.419,0,8.064-1.128,8.064-7.097v-54.023c0-13.385-.322-33.541-.484-35.155-.645-5.16-2.257-6.289-8.225-6.289h-5.803c-.806,0-1.29-.161-1.29-1.128v-4.354c0-.484.322-.806,1.128-.806,3.546,0,9.192.484,19.835.484h7.093c15.966,0,31.929-.161,47.895-.161,2.579,0,5.642-.322,6.448-.322s1.132.322,1.293.806l8.221,25.963c.161.645.161,1.128-.484,1.451l-2.418,1.29c-.484.324-1.128-.161-1.29-.484-.322-.645-12.255-15.965-16.128-18.383-3.385-2.259-7.899-4.193-12.255-4.354l-28.705-.645v47.249Z" fill="#272727"/><path d="M1283.421,130.149c0-9.396-4.78-14.651-10.511-14.811l-6.531-.159c-.796,0-.955-.637-.955-1.114v-4.141c0-.637.159-.955.955-.955s2.07.159,4.461.159c2.388.159,5.89.318,11.307.318s8.759-.318,10.67-.318c2.07,0,3.343.637,4.617,2.07l33.446,43.318c1.751,2.229,28.662,35.195,32.487,40.293h.637v-18.953c0-14.174-.159-21.976-.478-29.94-.159-6.21-.955-21.817-1.91-24.525-1.277-3.982-4.302-6.21-8.759-6.21h-5.098c-.637,0-.955-.318-.955-1.114v-4.141c0-.637.318-.955.955-.955,2.229,0,7.327.478,17.519.478,9.555,0,13.376-.478,15.446-.478,1.118,0,1.277.478,1.277,1.114v3.982c0,.637-.318,1.114-.959,1.114h-4.298c-4.298,0-5.894,2.708-6.212,8.759-.637,10.67-.637,26.436-.637,36.787v59.561c0,2.229-.159,3.821-.796,3.821-1.91,0-3.343-1.91-3.821-2.547l-19.429-24.523c-11.147-13.857-22.772-28.509-23.727-29.464-1.755-1.592-31.054-38.379-32.009-39.654h-.959v35.354c0,14.811,1.277,40.769,1.596,43.956.637,6.209,1.592,9.237,5.89,9.237h4.78c1.114,0,1.274.478,1.274,1.433v3.502c0,.955-.159,1.274-1.274,1.274-1.596,0-11.147-.478-15.449-.478-3.343,0-14.331.478-15.923.478-.64,0-.8-.318-.8-1.114v-4.139c0-.478.159-.955.959-.955h5.413c4.62,0,6.371-1.91,7.167-9.715.318-3.028.637-21.18.637-49.53v-27.072Z" fill="#272727"/><path d="M951.591,10.117l-25.372,86.039s-45.424-19.653-101.219-19.653v-30.045s31.653-41.96,31.653-41.96l30.534,40.92,64.404-35.301Z" fill="#3e4f3c"/><path d="M698.409,10.117l25.372,86.039s45.424-19.653,101.219-19.653v-30.045l-31.653-41.96-30.534,40.92-64.404-35.301Z" fill="#719368"/></svg>